/* XPM */
static char *result[] = {
/* columns rows colors chars-per-pixel */
"64 64 24 1 ",
"  c #533A38",
". c #543D38",
"X c #553E39",
"o c #543C3A",
"O c #F27575",
"+ c #A9BB57",
"@ c #ABBD57",
"# c #ADBF58",
"$ c #D58571",
"% c #AEC159",
"& c #AFC159",
"* c #AFC259",
"= c #FBC57C",
"- c #FFAD99",
"; c #85C3D7",
": c #DECFC3",
"> c #EEE6E0",
", c #F0E8E2",
"< c #F2EAE4",
"1 c #F3EBE5",
"2 c #F5EBE5",
"3 c #F3ECE5",
"4 c #F4ECE6",
"5 c #F5ECE6",
/* pixels */
"****************************************************************",
"****************************************************************",
"****************************************************************",
"****************************************************************",
"****************************************************************",
"*****************&*********************%##@++*******************",
"****************************************************************",
"*****************&**********************************************",
"****************************************************************",
"****************************************************************",
"*****************XXXXXX****************XXXXXX*******************",
"*****************XXXXXX****************XXXXXX*******************",
"*****************XXXXXX****************XXXXXX*******************",
"**************XXX333333XXX**********XXX333333XXX****************",
"**************XXX333333XXX**********XXX333333XXX****************",
"**************...333333XXX**********XX.333333XX.****************",
"**************   :::$$$                $$$:::   ****************",
"**************   :::$$$                $$$:::   ****************",
"**************   :::$$$                $$$:::   ****************",
"**************   444---   1444444441   ---444   ****************",
"**************   444---   1444444441   ---444   ****************",
"**************   444---   1444444441   ---444   ****************",
"***********   4444444444444444444444444444444444   *************",
"***********   4444444444444444444444444444444444   *************",
"***********o  4444444444444444444444444441114444  o*************",
"***********o  4444444444444444444444444441114444  o*************",
"***********o  4444444444444444444444444441114444  o*************",
"***********   4444444444444444444444444444444444   *************",
"***********   4444444444444444444444444444444444   *************",
"***********   4444444444444444444444444444444444   *************",
"***********   444444444===2544444452===444444444   *************",
"***********   444444444===2444444442===444444444   *************",
"***********   444444444===2544444452===444444444   *************",
"******        4444444444444444444444444444444444        ********",
"******        4444444444444444444444444444444444        ********",
"******        4444444444444444444444444444444444        ********",
"***********   444444   4444444444444444   444444   *************",
"***********   444444   4444444444444444   444444   *************",
"***********   444444   4444444444444444   444444   *************",
"***********   444444   4444444444444444   444444   *************",
"***********   444444   4444444444444444   444444   *************",
"******        444444   44444------44444   444444        ********",
"******        444444   44444------44444   444444        ********",
"******        444444   44444------44444   444444        ********",
"**************   ---4444444444444444444444---   ****************",
"**************   ---4444444444444444444444---   ****************",
"**************   ---4444444444444444444444---   ****************",
"*********                                            ***********",
"*********                                            ***********",
"*********                                            ***********",
"******   44444444   ===;;;;;;;;;;;;;;;;===   44444444   ********",
"******   44444444   ===;;;;;;;;;;;;;;;;===   44444444   ********",
"******   44444444   ===;;;;;;;;;;;;;;;;===   44444444   ********",
"******   44444444   OOOOOOOOOOOOOOOOOOOOOO   44444444   ********",
"******   44444444   OOOOOOOOOOOOOOOOOOOOOO   44444444   ********",
"******   44444444   OOOOOOOOOOOOOOOOOOOOOO   44444444   ********",
"******   14414441   OOOOOOOO      OOOOOOOO   14441441   ********",
"******   <44,<44>   OOOOOOOO      OOOOOOOO   >44<,44<   ********",
"*********           OOOOOOOO      OOOOOOOO           ***********",
"*********           OOOOOOOO      OOOOOOOO           ***********",
"*********           OOOOOOOO      OOOOOOOO           ***********",
"**************   44444444444      44444444444   ****************",
"**************   44444444444      44444444444   ****************",
"**************   44444444444      44444444444   ****************"
};
