/* XPM */
static char *_5f58d927d9c4384dfb1d3380bf004d4pZn2HgsZPC8aecEt[] = {
/* columns rows colors chars-per-pixel */
"64 64 9 1 ",
"  c #533A38",
". c #553E39",
"X c #573F3D",
"o c #F27575",
"O c #AFC259",
"+ c #FBC57C",
"@ c #FFAE9A",
"# c #85C3D7",
"$ c #F4ECE6",
/* pixels */
"OOOOOOOOOOOOOOOOOOOOOOOOOOOOOOOOOOOOOOOOOOOOOOOOOOOOOOOOOOOOOOOO",
"OOOOOOOOOOOOOOOOOOOOOOOOOOOOOOOOOOOOOOOOOOOOOOOOOOOOOOOOOOOOOOOO",
"OOOOOOOOOOOOOOOOOOOOOOOOOOOOOOOOOOOOOOOOOOOOOOOOOOOOOOOOOOOOOOOO",
"OOOOOOOOOOOOOOOOOOOOOOOOOOOOOOOOOOOOOOOOOOOOOOOOOOOOOOOOOOOOOOOO",
"OOOOOOOOOOOOOOOOOOOOOOOOOOOOOOOOOOOOOOOOOOOOOOOOOOOOOOOOOOOOOOOO",
"OOOOOOOOOOOOOOOOOOOOOOOOOOOOOOOOOOOOOOOOOOOOOOOOOOOOOOOOOOOOOOOO",
"OOOOOOOOOOOOOOOOOOOOOOOOOOOOOOOOOOOOOOOOOOOOOOOOOOOOOOOOOOOOOOOO",
"OOOOOOOOOOOOOOOOOOOOOOOOOOOOOOOOOOOOOOOOOOOOOOOOOOOOOOOOOOOOOOOO",
"OOOOOOOOOOOOOOOOOOOOOOOOOOOOOOOOOOOOOOOOOOOOOOOOOOOOOOOOOOOOOOOO",
"OOOOOOOOOOOOOOOOOOOOOOOOOOOOOOOOOOOOOOOOOOOOOOOOOOOOOOOOOOOOOOOO",
"OOOOOOOOOOOOOOOOOOOOOOOOOOOOOOOOOOOOOOOOOOOOOOOOOOOOOOOOOOOOOOOO",
"OOOOOOOOOOOOOOOOOOOOOOOOOOOOOOOOOOOOOOOOOOOOOOOOOOOOOOOOOOOOOOOO",
"OOOOOOOOOOOOOOOOO      OOOOOOOOOOO       OOOOOOOOOOOOOOOOOOOOOOO",
"OOOOOOOOOOOOOOOOO      OOOOOOOOOOO       OOOOOOOOOOOOOOOOOOOOOOO",
"OOOOOOOOOOOOOOOOO      OOOOOOOOOOO       OOOOOOOOOOOOOOOOOOOOOOO",
"OOOOOOOOOOOOO    $$$$$$    OOOO   $$$$$$$   OOOOOOOOOOOOOOOOOOOO",
"OOOOOOOOOOOOO    $$$$$$    OOOO   $$$$$$$   OOOOOOOOOOOOOOOOOOOO",
"OOOOOOOOOOOOO    $$$$$$    OOOO   $$$$$$$   OOOOOOOOOOOOOOOOOOOO",
"OOOOOOOOOOOOO    $$$$$$    OOOO   $$$$$$$   OOOOOOOOOOOOOOOOOOOO",
"OOOOOOOOOOOOO    $$$$$$    OOOO   $$$$$$$   OOOOOOOOOOOOOOOOOOOO",
"OOOOOOOOOOOOO    @@$$$$    OOOO   @@@$$$$   OOOOOOOOOOOOOOOOOOOO",
"OOOOOOOOOOOOO    @@$$$$    OOOO   @@@$$$$   OOOOOOOOOOOOOOOOOOOO",
"OOOOOOOOOOOOO    @@$$$$    OOOO   @@@$$$$   OOOOOOOOOOOOOOOOOOOO",
"OOOOOOOOOOOOO    @@$$$$           @@@$$$$   OOOOOOOOOOOOOOOOOOOO",
"OOOOOOOOOOOOO    @@$$$$           @@@$$$$   OOOOOOOOOOOOOOOOOOOO",
"OOOOOOOOOOOOO    @@$$$$           @@@$$$$   OOOOOOOOOOOOOOOOOOOO",
"OOOOOOOOOOOOO    @@$$$$    $$$$   @@@$$$$$$$    OOOOOOOOOOOOOOOO",
"OOOOOOOOOOOOO    @@$$$$    $$$$   @@@$$$$$$$    OOOOOOOOOOOOOOOO",
"OOOOOOOOOO   $$$$$$$$$$$$$$$$$$$$$$$$$$$$$$$$$$$   OOOOOOOOOOOOO",
"OOOOOOOOOO   $$$$$$$$$$$$$$$$$$$$$$$$$$$$$$$$$$$   OOOOOOOOOOOOO",
"OOOOOOOOOO   $$$$$$$$$$$$$$$$$$$$$$$$$$$$$$$$$$$   OOOOOOOOOOOOO",
"OOOOOOOOOO   $$$$$$$$$$$$$$$$$$$$$$$$$$$$$$$$$$$   OOOOOOOOOOOOO",
"OOOOOOOOOO   $$$$$$$$$$$$$$$$$$$$$$$$$$$$$$$$$$$   OOOOOOOOOOOOO",
"OOOOOOOOOO   $$$$$$$$$$$$$$$$$$$$$$$$$$$$$$$$$$$   OOOOOOOOOOOOO",
"OOOOOOOOOO   $$$$$$$+++$$$$$$$$+++$$$$$$$$$$       OOOOOOOOOOOOO",
"OOOOOOOOOO   $$$$$$$+++$$$$$$$$+++$$$$$$$$$$       OOOOOOOOOOOOO",
"OOOOOOOOOO   $$$$$$$+++$$$$$$$$+++$$$$$$$$$$       OOOOOOOOOOOOO",
"OOOOOOO      $$$$$$$$$$$$$$$$$$$$$$$$$$$$$$$$$$$    ..OOOOOOOOOO",
"OOOOOOO      $$$$$$$$$$$$$$$$$$$$$$$$$$$$$$$$$$$    ..OOOOOOOOOO",
"OOOOOOO      $$$$$$$$$$$$$$$$$$$$$$$$$$$$$$$$$$$    ..OOOOOOOOOO",
"OOOOOOOOOO   $$$$  X$$$$$$$$$$$$$$   $$$$$$$       OOOOOOOOOOOOO",
"OOOOOOOOOO   $$$$  X$$$$$$$$$$$$$$   $$$$$$$       OOOOOOOOOOOOO",
"OOOOOOOOOO   $$$$  X$$$$$$$$$$$$$$   $$$$$$$       OOOOOOOOOOOOO",
"OOOOOOO      $$$$  X$$$@@@@@@@@$$$   $$$$$$$$$$$    ..OOOOOOOOOO",
"OOOOOOO      $$$$  X$$$@@@@@@@@$$$   $$$$$$$$$$$    ..OOOOOOOOOO",
"OOOOOOOOOOOOO    @@@$$$$$$$$$$$$$$$$$@@@@$$$    OOOOOOOOOOOOOOOO",
"OOOOOOOOOOOOO    @@@$$$$$$$$$$$$$$$$$@@@@$$$    OOOOOOOOOOOOOOOO",
"OOOOOOOOOOOOO    @@@$$$$$$$$$$$$$$$$$@@@@$$$    OOOOOOOOOOOOOOOO",
"OOOOOOOOOOOOOOOOO                           OOOOOOOOOOOOOOOOOOOO",
"OOOOOOOOOOOOOOOOO                           OOOOOOOOOOOOOOOOOOOO",
"OOOOOOOOOOOOOOOOO                           OOOOOOOOOOOOOOOOOOOO",
"OOOOOOOOOO       ##++++$$$$$$$$+++##########       OOOOOOOOOOOOO",
"OOOOOOOOOO       ##++++$$$$$$$$+++##########       OOOOOOOOOOOOO",
"OOOOOOO   $$$$$$$  ++++########+++#######   $$$$$$$   OOOOOOOOOO",
"OOOOOOO   $$$$$$$  ++++########+++#######   $$$$$$$   OOOOOOOOOO",
"OOOOOOO   $$$$$$$  ++++########+++#######   $$$$$$$   OOOOOOOOOO",
"OOOOOOO   $$$$$$$  oooooooooooooooooooooo   $$$$$$$   OOOOOOOOOO",
"OOOOOOO   $$$$$$$  oooooooooooooooooooooo   $$$$$$$   OOOOOOOOOO",
"OOOOOOO   $$$$$$$  oooooooooooooooooooooo   $$$$$$$   OOOOOOOOOO",
"OOOOOOOOOO         oooooooo       ooooooo          OOOOOOOOOOOOO",
"OOOOOOOOOO         oooooooo       ooooooo          OOOOOOOOOOOOO",
"OOOOOOOOOOOOO    $$$$$$$$$$    $$$$$$$$$$   OOOOOOOOOOOOOOOOOOOO",
"OOOOOOOOOOOOO    $$$$$$$$$$    $$$$$$$$$$   OOOOOOOOOOOOOOOOOOOO",
"OOOOOOOOOOOOO    $$$$$$$$$$    $$$$$$$$$$   OOOOOOOOOOOOOOOOOOOO"
};
