/* XPM */
static char *_162081841194440b0bef5e3e27a763bWSpZqXlrgZw3KheY[] = {
/* columns rows colors chars-per-pixel */
"64 64 11 1 ",
"  c #533A38",
". c #553E39",
"X c #F27575",
"o c #ADBF58",
"O c #D3965F",
"+ c #AFC259",
"@ c #FAC57A",
"# c #FCC57B",
"$ c #86C3D7",
"% c #88C3D4",
"& c #F5ECE6",
/* pixels */
"++++++++++++++++++++++++++++++++++++++++++++++++++++++++++++++++",
"++++++++++++++++++++++++++++++++++++++++++++++++++++++++++++++++",
"++++++++++++++++++++++++++++++++++++++++++++++++++++++++++++++++",
"+++++++++++++++++    .++++++++++++++++++.    +++++++++++++++++++",
"+++++++++++++++++    .++++++++++++++++++.    +++++++++++++++++++",
"+++++++++++++++++    .++++++++++++++++++.    +++++++++++++++++++",
"++++++++++++++   &&&&&   ++++++++++++   &&&&&   ++++++++++++++++",
"++++++++++++++   &&&&&   ++++++++++++   &&&&&   ++++++++++++++++",
"++++++++++++++   &&&&&   ++++++++++++   &&&&&   ++++++++++++++++",
"++++++++++++++   &&&&&   ++++++++++++   &&&&&   ++++++++++++++++",
"++++++++++++++   &&&&&   ++o++++++o++   &&&&&   ++++++++++++++++",
"++++++++++++++   &&&&&   ++++++++++++   &&&&&   ++++++++++++++++",
"++++++++++++++   &&&&&   ++++++++++++   &&&&&   ++++++++++++++++",
"++++++++++++++   &&&&&   ++++++++++++   &&&&&   ++++++++++++++++",
"++++++++++++++   &&&&&                  &&&&&   ++++++++++++++++",
"++++++++++++++   &&&&&                  &&&&&   ++++++++++++++++",
"++++++++++++++   &&&&&                  &&&&&   ++++++++++++++++",
"++++++++++++++   &&&&&&&&&&&&&&&&&&&&&&&&&&&&   ++++++++++++++++",
"++++++++++++++   &&&&&&&&&&&&&&&&&&&&&&&&&&&&   ++++++++++++++++",
"++++++++++++++   &&&&&&&&&&&&&&&&&&&&&&&&&&&&   ++++++++++++++++",
"+++++++++++   &&&&&&&&&&&&&&&&&&&&&&&&&&&&&&&&&&   +++++++++++++",
"+++++++++++   &&&&&&&&&&&&&&&&&&&&&&&&&&&&&&&&&&   +++++++++++++",
"+++++++++++   &&&&&&&&&&&&&&&&&&&&&&&&&&&&&&&&&&   +++++++++++++",
"+++++++++++   &&&&&&&&&&&&&&&&&&&&&&&&&&&&&&&&&&   +++++++++++++",
"+++++++++++   &&&&&&&&&&&&&&&&&&&&&&&&&&&&&&&&&&   +++++++++++++",
"+++++++++++   &&&&&&&&&&&&&&&&&&&&&&&&&&&&&&&&&&   +++++++++++++",
"+++++++++++   &&&&&&&&&&&&&&&&&&&&&&&&&&&&&&&&&&   +++++++++++++",
"++++++++      &&&&&&&&&&&&&&&&&&&&&&&&&&&&&&&&&&      ++++++++++",
"++++++++      &&&&&&&&&&&&&&&&&&&&&&&&&&&&&&&&&&      ++++++++++",
"++++++++      &&&&&&&&&&&&&&&&&&&&&&&&&&&&&&&&&&      ++++++++++",
"+++++++++++   &&&&&&&&&&&&&&&&&&&&&&&&&&&&&&&&&&   +++++++++++++",
"+++++++++++   &&&&&&&&&&&&&&&&&&&&&&&&&&&&&&&&&&   +++++++++++++",
"+++++++++++   &&&&&&&&&&&&&&&&&&&&&&&&&&&&&&&&&&   +++++++++++++",
"+++++++++++   &&&&&&&&&&&&&&&&&&&&&&&&&&&&&&&&&&   +++++++++++++",
"++++++++o++   &&&&&&&&&&&&&&&&&&&&&&&&&&&&&&&&&&   +++++++++++++",
"++++++++      &&&&&&&&&&&&&&&&&&&&&&&&&&&&&&&&&&      ++++++++++",
"++++++++      &&&&&&&&&&&&&&&&&&&&&&&&&&&&&&&&&&      ++++++++++",
"++++++++      &&&&&&&&&&&&&&&&&&&&&&&&&&&&&&&&&&      ++++++++++",
"+++++++++++   &&&&&&&&&&&&&&&&&&&&&&&&&&&&&&&&&&   +++++++++++++",
"+++++++++++   &&&&&&&&&&&&&&&&&&&&&&&&&&&&&&&&&&   +++++++++++++",
"+++++++++++   &&&&&&&&&&&&&&&&&&&&&&&&&&&&&&&&&&   +++++++++++++",
"++++++++++++++    &&&&&&OOOOOOOOOOOOOO&&&&&&    ++++++++++++++++",
"++++++++++++++    &&&&&&OOOOOOOOOOOOOO&&&&&&    ++++++++++++++++",
"++++++++++++++    &&&&&&OOOOOOOOOOOOOO&&&&&&    ++++++++++++++++",
"++++++++++++++++++      ##############      ++++++++++++++++++++",
"++++++++++++++++++      ##############      ++++++++++++++++++++",
"++++++++++++++++++      ###@@####@@###      ++++++++++++++++++++",
"++++++++++++++    %$@@@@@@@OOOOOOOO@@@@@@@$%    ++++++++++++++++",
"++++++++++++++    $$#######OOOOOOOO#######$$    ++++++++++++++++",
"++++++++++o   &&&&  OOOO##############OOOO  &&&&   o++++++++++++",
"+++++++++++   &&&&  OOOO##############OOOO  &&&&   +++++++++++++",
"+++++++++++   &&&&  OOOO##############OOOO  &&&&   +++++++++++++",
"+++++++++++   &&&&  OOOO##############OOOO  &&&&   +++++++++++++",
"+++++++++++   &&&&  ####OOOOOOOOOOOOOO####  &&&&   +++++++++++++",
"+++++++++++   &&&&  ####OOOOOOOOOOOOOO####  &&&&   +++++++++++++",
"+++++++++++   &&&&  ####OOOOOOOOOOOOOO####  &&&&   +++++++++++++",
"+++++++++++   &&&&  XXXX##############XXXX  &&&&   +++++++++++++",
"++++++++++++++      XXXX##############XXXX      ++++++++++++++++",
"++++++++++++++      XXXX##############XXXX      o+++++++++++++++",
"++++++++++++++      XXXX##############XXXX      ++++++++++++++++",
"++++++++++++++    &&&&&&&&&&      &&&&&&&&&&    ++++++++++++++++",
"++++++++++++++    &&&&&&&&&&      &&&&&&&&&&    ++++++++++++++++",
"++++++++++++++    &&&&&&&&&&      &&&&&&&&&&    ++++++++++++++++",
"++++++++++++++++++++++++++++++++++++++++++++++++++++++++++++++++"
};
