/* XPM */
static char *_22cb7eadd464fa4e7cfae11eda26321PyImCnaRkGzLw6HR[] = {
/* columns rows colors chars-per-pixel */
"64 64 8 1 ",
"  c #533A38",
". c #D39660",
"X c #D49761",
"o c #AFC259",
"O c #FAC57B",
"+ c #FBC57C",
"@ c #F3EBE5",
"# c #F4ECE6",
/* pixels */
"oooooooooooooooooooooooooooooooooooooooooooooooooooooooooooooooo",
"oooooooooooooooooooooooooooooooooooooooooooooooooooooooooooooooo",
"oooooooooooooooooooooooooooooooooooooooooooooooooooooooooooooooo",
"oooooooooooooooooooooooooooooooooooooooooooooooooooooooooooooooo",
"oooooooooooooooooooooooooooooooooooooooooooooooooooooooooooooooo",
"oooooooooooooooo       oooooooooooooooo       oooooooooooooooooo",
"oooooooooooooooo       oooooooooooooooo       oooooooooooooooooo",
"oooooooooooooooo       oooooooooooooooo       oooooooooooooooooo",
"ooooooooooooo   #######   oooooooooo   #######   ooooooooooooooo",
"ooooooooooooo   #######   oooooooooo   #######   ooooooooooooooo",
"ooooooooooooo   #######   oooooooooo   #######   ooooooooooooooo",
"ooooooooooooo   #######   oooooooooo   #######   ooooooooooooooo",
"ooooooooooooo   #######   oooooooooo   #######   ooooooooooooooo",
"ooooooooooooo   #######   oooooooooo   #######   ooooooooooooooo",
"ooooooooooooo   #######                #######   ooooooooooooooo",
"ooooooooooooo   #######                #######   ooooooooooooooo",
"ooooooooooooo   #######                #######   ooooooooooooooo",
"ooooooooooooo   ##############################   ooooooooooooooo",
"ooooooooooooo   ##############################   ooooooooooooooo",
"ooooooooooooo   ##############################   ooooooooooooooo",
"oooooooooo   ####################################   oooooooooooo",
"oooooooooo   ####################################   oooooooooooo",
"oooooooooo   ####################################   oooooooooooo",
"oooooooooo   ####################################   oooooooooooo",
"oooooooooo   ####################################   oooooooooooo",
"oooooooooo   ####################################   oooooooooooo",
"oooooooooo   ####################################   oooooooooooo",
"oooooooooo   ####################################   oooooooooooo",
"oooooooooo   ####################################   oooooooooooo",
"oooooooooo   ####################################   oooooooooooo",
"oooooooooo   ####################################   oooooooooooo",
"oooooooooo   ####################################   oooooooooooo",
"oooooo       ####################################       oooooooo",
"oooooo       ####################################       oooooooo",
"oooooo       ####################################       oooooooo",
"oooooooooo   ####################################   oooooooooooo",
"oooooooooo   ####################################   oooooooooooo",
"oooooooooo   ####################################   oooooooooooo",
"oooooooooo   ####################################   oooooooooooo",
"oooooooooo   ####################################   oooooooooooo",
"oooooo       ####################################       oooooooo",
"oooooo       ####################################       oooooooo",
"oooooo       ####################################       oooooooo",
"ooooooooooooo    ######................######    ooooooooooooooo",
"ooooooooooooo    ######................######    ooooooooooooooo",
"ooooooooooooo    ######................######    ooooooooooooooo",
"ooooooooo          ....+++++OOOOOO+++++....          ooooooooooo",
"ooooooooo          ....+++++++OO+++++++....          ooooooooooo",
"ooooooooo          ....++++++++++++++++....          ooooooooooo",
"oooooo   @#####    +++++++++......+++++++++    #####@   oooooooo",
"oooooo   ######    +++++++++......+++++++++    ######   oooooooo",
"oooooo   ######    +++++++++......+++++++++    ######   oooooooo",
"oooooo   ######    +++++++++......+++++++++    ######   oooooooo",
"oooooo   ######    ....++++++++++++++++....    ######   oooooooo",
"oooooo   ######    ....++++++++++++++++....    ######   oooooooo",
"oooooo   ######    ....++++++++++++++++....    ######   oooooooo",
"oooooo   ######    X..X++++++++++++++++X..X    ######   oooooooo",
"ooooooooo          ++++................++++          ooooooooooo",
"ooooooooo          ++++................++++          ooooooooooo",
"ooooooooo          ++++................++++          ooooooooooo",
"ooooooooo          ++++................++++          ooooooooooo",
"oooooooooooo    #######++++++++++++++++#######    oooooooooooooo",
"oooooooooooo    #######++++++++++++++++#######    oooooooooooooo",
"oooooooooooo    #######++++++++++++++++#######    oooooooooooooo"
};
