/* XPM */
static char *_b01bfe626474b76dddec8b954c58e98LJwDHqVKYEuuphGL[] = {
/* columns rows colors chars-per-pixel */
"64 64 14 1 ",
"  c #533A38",
". c #553E39",
"X c #573F3D",
"o c #F27575",
"O c #ADBF58",
"+ c #D58571",
"@ c #AFC259",
"# c #B0C259",
"$ c #FBC57C",
"% c #FFAD99",
"& c #85C3D7",
"* c #DECFC3",
"= c #F3EBE5",
"- c #F4ECE6",
/* pixels */
"@@@@@@@@@@@@@@@@@@@@@@@@@@@@@@@@@@@@@@@@@@@@@@@@@@@@@@@@@@@@@@@@",
"@@@@@@@@@@@@@@@@@@@@@@@@@@@@@@@@@@@@@@@@@@@@@@@@@@@@@@@@@@@@@@@@",
"@@@@@@@@@@@@@@@@@@@@@@@@@@@@@@@@@@@@@@@@@@@@@@@@@@@@@@@@@@@@@@@@",
"@@@@@@@@@@@@@@@@@@@@@@@@@@@@@@@@@@@@@@@@@@@@@@@@@@@@@@@@@@@@@@@@",
"@@@@@@@@@@@@@@@@@@@@@@@@@@@@@@@@@@@@@@@@@@@@@@@@@@@@@@@@@@@@@@@@",
"@@@@@@@@@@@@@@@@@@@@@@@@@@@@@@@@@@@@@@@@@@@@@@@@@@@@@@@@@@@@@@@@",
"@@@@@@@@@@@@@@@@@@@@@@@@@@@@@@@@@@@@@@@@@@@@@@@@@@@@@@@@@@@@@@@@",
"@@@@@@@@@@@@@@@@@@@@@@@@@@@@@@@@@@@@@@@@@@@@@@@@@@@@@@@@@@@@@@@@",
"@@@@@@@@@@@@@@@@@@@@@@@@@@@@@@@@@@@@@@@@@@@@@@@@@@@@@@@@@@@@@@@@",
"@@@@@@@@@@@@@@@@@@@@@@@@@@@@@@@@@@@@@@@@@@@@@@@@@@@@@@@@@@@@@@@@",
"@@@@@@@@@@@@@@@@@@@@@@@@@@@@@@@@@@@@@@@@@@@@@@@@@@@@@@@@@@@@@@@@",
"@@@@@@@@@@@@@@@@@@@@@@@@@@@@@@@@@@@@@@@@@@@@@@@@@@@@@@@@@@@@@@@@",
"@@@@@@@@@@@@@@@@@@@@@@@@@@@@@@@@@@@@@@@@@@@@@@@@@@@@@@@@@@@@@@@@",
"@@@@@@@@@@@@@@@@@@@@@@@@@@@@@@@@@@@@@@@@@@@@@@@@@@@@@@@@@@@@@@@@",
"@@@@@@@@@@@@@@@@@@@@@@@@@@@@@@@@@@@@@@@@@@@@@@@@@@@@@@@@@@@@@@@@",
"@@@@@@@@@               @@@               @@@@@@@@@@@@@@@@@@@@@@",
"@@@@@@@@@               @@@               @@@@@@@@@@@@@@@@@@@@@@",
"@@@@@@@@@               @@@               @@@@@@@@@@@@@@@@@@@@@@",
"@@@@@@@@@    -----------       -----------   @@@@@@@@@@@@@@@@@@@",
"@@@@@@@@@    -----------       -----------   @@@@@@@@@@@@@@@@@@@",
"@@@@@@@@@    -----------       -----------   @@@@@@@@@@@@@@@@@@@",
"@@@@@@@@@    -----------       -----------   @@@@@@@@@@@@@@@@@@@",
"@@@@@@@@@        +++****           ++*****   @@@@@@@@@@@@@@@@@@@",
"@@@@@@@@@        +++****           ++*****   @@@@@@@@@@@@@@@@@@@",
"@@@@@@@@@        +++****           ++*****   @@@@@@@@@@@@@@@@@@@",
"@@@@@@@@@@@@@    %%%----   ----    %%-----       @@@@@@@@@@@@@@@",
"@@@@@@@@@@@@@    %%%----   ----    %%-----       @@@@@@@@@@@@@@@",
"@@@@@@@@@@@@@    %%%----   ----    %%-----       @@@@@@@@@@@@@@@",
"@@@@@@@@@    ------------------------------------   @@@@@@@@@@@@",
"@@@@@@@@@    ------------------------------------   @@@@@@@@@@@@",
"@@@@@@@@@    ------------------------------------   @@@@@@@@@@@@",
"@@@@@@@@@    ------------------------------------   @@@@@@@@@@@@",
"@@@@@@@@@    ------------------------------------   @@@@@@@@@@@@",
"@@@@@@@@@    ------------------------------------   @@@@@@@@@@@@",
"@@@@@@@@@    ------------------------------------   @@@@@@@@@@@@",
"@@@@@@@@@    --------$$$-------$$$-----------       @@@@@@@@@@@@",
"@@@@@@@@@    --------$$$-------$$$-----------       @@@@@@@@@@@@",
"@@@@@@@@@    --------$$$-------$$$-----------       @@@@@@@@@@@@",
"@@@@@@@      ------------------------------------    ..@@@@@@@@@",
"@@@@@@@      ------------------------------------    ..@@@@@@@@@",
"@@@@@@@      ------------------------------------    ..@@@@@@@@@",
"@@@@@@@@@    ----   --------------X  --------       @@@@@@@@@@@@",
"@@@@@@@@@    ----   --------------X  --------       @@@@@@@@@@@@",
"@@@@@@@@@    ----   --------------   --------       @@@@@@@@@@@@",
"@@@@@@@      ----   ---%%%%%%%%---X  ------------    ..@@@@@@@@@",
"@@@@@@@      ----   ---%%%%%%%%---X  ------------    ..@@@@@@@@@",
"@@@@@@@@@@@@@    %%%-----------------%%%%%---    @@@@@@@@@@@@@@@",
"@@@@@@@@@@@@@    %%%-----------------%%%%%---    @@@@@@@@@@@@@@@",
"@@@@@@@@@@@@@    %%%-----------------%%%%%---    @@@@@@@@@@@@@@@",
"@@@@@@@@@@@@@                                    @@@@@@@@@@@@@@@",
"@@@@@@@@@@@@@@@@@                            @@@@@@@@@@@@@@@@@@@",
"@@@@@@@@@O@@@@@@@                            @@@@@@@@@@@@@@@@@@@",
"@@@@@@@@@           $$$$&&&&&&&$$$$&&&&&&&          @@@@@@@@@@@@",
"@@@@@@@@@           $$$$&&&&&&&$$$$&&&&&&&          @@@@@@@@@@@@",
"@@@@@@@     XX      $$$$&&&&&&&$$$$&&&&&&&          @@@@@@@@@@@@",
"@@@@@@@  --------   oooooooooooooooooooooo   -------   @@@@@@@@@",
"@@@@@@@  --------   oooooooooooooooooooooo   -------   @@@@@@@@@",
"@@@@@@@  --------   oooooooooooooooooooooo   -------   @@@@@@@@@",
"@@@@@@@  --------   ooooooo        ooooooo   =--==-- ..@@@@@@@@@",
"@@@@@@@  =====-==   ooooooo        ooooooo   ------- ..@@@@@@@@@",
"@@@@@@@ .=====-==   ooooooo        ooooooo   =---=== ..@@@@@@@@@",
"@@@@@@@@@        ----------    -----------          #@@@@@@@@@@@",
"@@@@@@@@@        ----------    -----------          @@@@@@@@@@@@",
"@@@@@@@@@        ----------    -----------          @@@@@@@@@@@@"
};
