/* XPM */
static char *eb1542ee95464580a6a0576617e05b84ukSkN6mU4uyrykiV[] = {
/* columns rows colors chars-per-pixel */
"64 64 14 1 ",
"  c #533A38",
". c #543B38",
"X c #543C3A",
"o c #F27575",
"O c #AFC259",
"+ c #FBC57C",
"@ c #FFAD99",
"# c #85C3D7",
"$ c #EEE6E0",
"% c #F0E8E2",
"& c #F3EBE5",
"* c #F5EBE5",
"= c #F3ECE5",
"- c #F4ECE6",
/* pixels */
"OOOOOOOOOOOOOOOOOOOOOOOOOOOOOOOOOOOOOOOOOOOOOOOOOOOOOOOOOOOOOOOO",
"OOOOOOOOOOOOOOOOOOOOOOOOOOOOOOOOOOOOOOOOOOOOOOOOOOOOOOOOOOOOOOOO",
"OOOOOOOOOOOOOOOOOOOOOOOOOOOOOOOOOOOOOOOOOOOOOOOOOOOOOOOOOOOOOOOO",
"OOOOOOOOOOOOOOOOOOOOOOOOOOOOOOOOOOOOOOOOOOOOOOOOOOOOOOOOOOOOOOOO",
"OOOOOOOOOOOOOOOOO      OOOOOOOOOOOOOOOO     XOOOOOOOOOOOOOOOOOOO",
"OOOOOOOOOOOOOOOOO      OOOOOOOOOOOOOOOO     XOOOOOOOOOOOOOOOOOOO",
"OOOOOOOOOOOOOOOOO      OOOOOOOOOOOOOOOO     XOOOOOOOOOOOOOOOOOOO",
"OOOOOOOOOOOOOO   ------   OOOOOOOOOO   ======   OOOOOOOOOOOOOOOO",
"OOOOOOOOOOOOOO   ------   OOOOOOOOOO   ------   OOOOOOOOOOOOOOOO",
"OOOOOOOOOOOOOO   ------   OOOOOOOOOO   ------   OOOOOOOOOOOOOOOO",
"OOOOOOOOOOOOOO   ---@@@   OOOOOOOOOO   @@@---   OOOOOOOOOOOOOOOO",
"OOOOOOOOOOOOOO   ---@@@   OOOOOOOOOO   @@@---   OOOOOOOOOOOOOOOO",
"OOOOOOOOOOOOOO   ---@@@   OOOOOOOOOO   @@@---   OOOOOOOOOOOOOOOO",
"OOOOOOOOOOOOOO   ---@@@                @@@---   OOOOOOOOOOOOOOOO",
"OOOOOOOOOOOOOO   ---@@@                @@@---   OOOOOOOOOOOOOOOO",
"OOOOOOOOOOOOOO   ---@@@                @@@---   OOOOOOOOOOOOOOOO",
"OOOOOOOOOOOOOO   ---@@@   &--------&   @@@---   OOOOOOOOOOOOOOOO",
"OOOOOOOOOOOOOO   ---@@@   &--------&   @@@---   OOOOOOOOOOOOOOOO",
"OOOOOOOOOOOOOO   ---@@@   &--------&   @@@---   OOOOOOOOOOOOOOOO",
"OOOOOOOOOOO   ----------------------------------   OOOOOOOOOOOOO",
"OOOOOOOOOOO   ----------------------------------   OOOOOOOOOOOOO",
"OOOOOOOOOOOX  ----------------------------------  XOOOOOOOOOOOOO",
"OOOOOOOOOOOX  ----------------------------------  XOOOOOOOOOOOOO",
"OOOOOOOOOOOX  ----------------------------------  XOOOOOOOOOOOOO",
"OOOOOOOOOOO   ----------------------------------   OOOOOOOOOOOOO",
"OOOOOOOOOOO   ----------------------------------   OOOOOOOOOOOOO",
"OOOOOOOOOOO   ----------------------------------   OOOOOOOOOOOOO",
"OOOOOOOOOOO   ---------+++*--------*+++---------   OOOOOOOOOOOOO",
"OOOOOOOOOOO   ---------+++*--------*+++---------   OOOOOOOOOOOOO",
"OOOOOOOOOOO   ---------+++*--------*+++---------   OOOOOOOOOOOOO",
"OOOOOO        ----------------------------------        OOOOOOOO",
"OOOOOO        ----------------------------------        OOOOOOOO",
"OOOOOO        ----------------------------------        OOOOOOOO",
"OOOOOOOOOOO   ------   ----------------   ------   OOOOOOOOOOOOO",
"OOOOOOOOOOO   ------   ----------------   ------   OOOOOOOOOOOOO",
"OOOOOOOOOOO   ------   ----------------   ------   OOOOOOOOOOOOO",
"OOOOOOOOOOO   ------   ----------------   ------   OOOOOOOOOOOOO",
"OOOOOOOOOOO   ------   ----------------   ------   OOOOOOOOOOOOO",
"OOOOOO        ------   -----@@@@@@-----   ------        OOOOOOOO",
"OOOOOO        ------   -----@@@@@@-----   ------        OOOOOOOO",
"OOOOOO        ------   -----@@@@@@-----   ------        OOOOOOOO",
"OOOOOOOOOOOOOO   @@@----------------------@@@   OOOOOOOOOOOOOOOO",
"OOOOOOOOOOOOOO   @@@----------------------@@@   OOOOOOOOOOOOOOOO",
"OOOOOOOOOOOOOO   @@@----------------------@@@   OOOOOOOOOOOOOOOO",
"OOOOOOOOOOOOOOOOO                            OOOOOOOOOOOOOOOOOOO",
"OOOOOOOOOOOOOOOOO                           .OOOOOOOOOOOOOOOOOOO",
"OOOOOOOOOOOOOOOOO                          .XOOOOOOOOOOOOOOOOOOO",
"OOOOOOOOO        ###+++#####------#####+++###        OOOOOOOOOOO",
"OOOOOOOOO        ###+++#####------#####+++###        OOOOOOOOOOO",
"OOOOOOOOO        ###+++#####------#####+++###        OOOOOOOOOOO",
"OOOOOO   --------   +++################+++   --------   OOOOOOOO",
"OOOOOO   --------   +++################+++   --------   OOOOOOOO",
"OOOOOO   --------   +++################+++   --------   OOOOOOOO",
"OOOOOO   --------   oooooooooooooooooooooo   --------   OOOOOOOO",
"OOOOOO   --------   oooooooooooooooooooooo   --------   OOOOOOOO",
"OOOOOO   --------   oooooooooooooooooooooo   --------   OOOOOOOO",
"OOOOOO   &--&---&   oooooooo      oooooooo   &---&--&   OOOOOOOO",
"OOOOOO   &--%&--$   oooooooo      oooooooo   $--&%--&   OOOOOOOO",
"OOOOOOOOO           oooooooo      oooooooo           OOOOOOOOOOO",
"OOOOOOOOO           oooooooo      oooooooo           OOOOOOOOOOO",
"OOOOOOOOO           oooooooo      oooooooo           OOOOOOOOOOO",
"OOOOOOOOOOOOOO   -----------      -----------   OOOOOOOOOOOOOOOO",
"OOOOOOOOOOOOOO   -----------      -----------   OOOOOOOOOOOOOOOO",
"OOOOOOOOOOOOOO   -----------      -----------   OOOOOOOOOOOOOOOO"
};
