/* XPM */
static char *_1d1f98ecaa84316d6273aa208c829c0FC5CaPHIbUxJ8PyO[] = {
/* columns rows colors chars-per-pixel */
"64 64 9 1 ",
"  c #533A38",
". c #553E39",
"X c #573F3D",
"o c #F27575",
"O c #AFC259",
"+ c #FBC57C",
"@ c #FFAE9A",
"# c #85C3D7",
"$ c #F4ECE6",
/* pixels */
"OOOOOOOOOOOOOOOOOOOOOOOOOOOOOOOOOOOOOOOOOOOOOOOOOOOOOOOOOOOOOOOO",
"OOOOOOOOOOOOOOOOOOOOOOOOOOOOOOOOOOOOOOOOOOOOOOOOOOOOOOOOOOOOOOOO",
"OOOOOOOOOOOOOOOOOOOOOOOOOOOOOOOOOOOOOOOOOOOOOOOOOOOOOOOOOOOOOOOO",
"OOOOOOOOOOOOOOOOOOOOOOOOOOOOOOOOOOOOOOOOOOOOOOOOOOOOOOOOOOOOOOOO",
"OOOOOOOOOOOOOOOOOOOOOOOOOOOOOOOOOOOOOOOOOOOOOOOOOOOOOOOOOOOOOOOO",
"OOOOOOOOOOOOOOOOOOOOOOOOOOOOOOOOOOOOOOOOOOOOOOOOOOOOOOOOOOOOOOOO",
"OOOOOOOOOOOOOOOOOOOOOOOOOOOOOOOOOOOOOOOOOOOOOOOOOOOOOOOOOOOOOOOO",
"OOOOOOOOOOOOOOOOOOOOOOOOOOOOOOOOOOOOOOOOOOOOOOOOOOOOOOOOOOOOOOOO",
"OOOOOOOOOOOOOOOOOOOOOOOOOOOOOOOOOOOOOOOOOOOOOOOOOOOOOOOOOOOOOOOO",
"OOOOOOOOOOOOOOOOOOOOOOOOOOOOOOOOOOOOOOOOOOOOOOOOOOOOOOOOOOOOOOOO",
"OOOOOOOOOOOOOOOOOOOOOOOOOOOOOOOOOOOOOOOOOOOOOOOOOOOOOOOOOOOOOOOO",
"OOOOOOOOOOOOOOOOOOOOOOOOOOOOOOOOOOOOOOOOOOOOOOOOOOOOOOOOOOOOOOOO",
"OOOOOOOOOOOOOOOOOOOOOO       OOOOOOOOOOO      OOOOOOOOOOOOOOOOOO",
"OOOOOOOOOOOOOOOOOOOOOO       OOOOOOOOOOO      OOOOOOOOOOOOOOOOOO",
"OOOOOOOOOOOOOOOOOOOOOO       OOOOOOOOOOO      OOOOOOOOOOOOOOOOOO",
"OOOOOOOOOOOOOOOOOOO   $$$$$$$   OOOO    $$$$$$    OOOOOOOOOOOOOO",
"OOOOOOOOOOOOOOOOOOO   $$$$$$$   OOOO    $$$$$$    OOOOOOOOOOOOOO",
"OOOOOOOOOOOOOOOOOOO   $$$$$$$   OOOO    $$$$$$    OOOOOOOOOOOOOO",
"OOOOOOOOOOOOOOOOOOO   $$$$$$$   OOOO    $$$$$$    OOOOOOOOOOOOOO",
"OOOOOOOOOOOOOOOOOOO   $$$$$$$   OOOO    $$$$$$    OOOOOOOOOOOOOO",
"OOOOOOOOOOOOOOOOOOO   $$$$@@@   OOOO    $$$$@@    OOOOOOOOOOOOOO",
"OOOOOOOOOOOOOOOOOOO   $$$$@@@   OOOO    $$$$@@    OOOOOOOOOOOOOO",
"OOOOOOOOOOOOOOOOOOO   $$$$@@@   OOOO    $$$$@@    OOOOOOOOOOOOOO",
"OOOOOOOOOOOOOOOOOOO   $$$$@@@           $$$$@@    OOOOOOOOOOOOOO",
"OOOOOOOOOOOOOOOOOOO   $$$$@@@           $$$$@@    OOOOOOOOOOOOOO",
"OOOOOOOOOOOOOOOOOOO   $$$$@@@           $$$$@@    OOOOOOOOOOOOOO",
"OOOOOOOOOOOOOOO    $$$$$$$@@@   $$$$    $$$$@@    OOOOOOOOOOOOOO",
"OOOOOOOOOOOOOOO    $$$$$$$@@@   $$$$    $$$$@@    OOOOOOOOOOOOOO",
"OOOOOOOOOOOO   $$$$$$$$$$$$$$$$$$$$$$$$$$$$$$$$$$$   OOOOOOOOOOO",
"OOOOOOOOOOOO   $$$$$$$$$$$$$$$$$$$$$$$$$$$$$$$$$$$   OOOOOOOOOOO",
"OOOOOOOOOOOO   $$$$$$$$$$$$$$$$$$$$$$$$$$$$$$$$$$$   OOOOOOOOOOO",
"OOOOOOOOOOOO   $$$$$$$$$$$$$$$$$$$$$$$$$$$$$$$$$$$   OOOOOOOOOOO",
"OOOOOOOOOOOO   $$$$$$$$$$$$$$$$$$$$$$$$$$$$$$$$$$$   OOOOOOOOOOO",
"OOOOOOOOOOOO   $$$$$$$$$$$$$$$$$$$$$$$$$$$$$$$$$$$   OOOOOOOOOOO",
"OOOOOOOOOOOO       $$$$$$$$$$+++$$$$$$$$+++$$$$$$$   OOOOOOOOOOO",
"OOOOOOOOOOOO       $$$$$$$$$$+++$$$$$$$$+++$$$$$$$   OOOOOOOOOOO",
"OOOOOOOOOOOO       $$$$$$$$$$+++$$$$$$$$+++$$$$$$$   OOOOOOOOOOO",
"OOOOOOOOO..    $$$$$$$$$$$$$$$$$$$$$$$$$$$$$$$$$$$      OOOOOOOO",
"OOOOOOOOO..    $$$$$$$$$$$$$$$$$$$$$$$$$$$$$$$$$$$      OOOOOOOO",
"OOOOOOOOO..    $$$$$$$$$$$$$$$$$$$$$$$$$$$$$$$$$$$      OOOOOOOO",
"OOOOOOOOOOOO       $$$$$$$   $$$$$$$$$$$$$$X  $$$$   OOOOOOOOOOO",
"OOOOOOOOOOOO       $$$$$$$   $$$$$$$$$$$$$$X  $$$$   OOOOOOOOOOO",
"OOOOOOOOOOOO       $$$$$$$   $$$$$$$$$$$$$$X  $$$$   OOOOOOOOOOO",
"OOOOOOOOO..    $$$$$$$$$$$   $$$@@@@@@@@$$$X  $$$$      OOOOOOOO",
"OOOOOOOOO..    $$$$$$$$$$$   $$$@@@@@@@@$$$X  $$$$      OOOOOOOO",
"OOOOOOOOOOOOOOO    $$$@@@@$$$$$$$$$$$$$$$$$@@@    OOOOOOOOOOOOOO",
"OOOOOOOOOOOOOOO    $$$@@@@$$$$$$$$$$$$$$$$$@@@    OOOOOOOOOOOOOO",
"OOOOOOOOOOOOOOO    $$$@@@@$$$$$$$$$$$$$$$$$@@@    OOOOOOOOOOOOOO",
"OOOOOOOOOOOOOOOOOOO                           OOOOOOOOOOOOOOOOOO",
"OOOOOOOOOOOOOOOOOOO                           OOOOOOOOOOOOOOOOOO",
"OOOOOOOOOOOOOOOOOOO                           OOOOOOOOOOOOOOOOOO",
"OOOOOOOOOOOO       ##########+++$$$$$$$$++++##       OOOOOOOOOOO",
"OOOOOOOOOOOO       ##########+++$$$$$$$$++++##       OOOOOOOOOOO",
"OOOOOOOOO   $$$$$$$   #######+++########++++  $$$$$$$   OOOOOOOO",
"OOOOOOOOO   $$$$$$$   #######+++########++++  $$$$$$$   OOOOOOOO",
"OOOOOOOOO   $$$$$$$   #######+++########++++  $$$$$$$   OOOOOOOO",
"OOOOOOOOO   $$$$$$$   oooooooooooooooooooooo  $$$$$$$   OOOOOOOO",
"OOOOOOOOO   $$$$$$$   oooooooooooooooooooooo  $$$$$$$   OOOOOOOO",
"OOOOOOOOO   $$$$$$$   oooooooooooooooooooooo  $$$$$$$   OOOOOOOO",
"OOOOOOOOOOOO          ooooooo       oooooooo         OOOOOOOOOOO",
"OOOOOOOOOOOO          ooooooo       oooooooo         OOOOOOOOOOO",
"OOOOOOOOOOOOOOOOOOO   $$$$$$$$$$    $$$$$$$$$$    OOOOOOOOOOOOOO",
"OOOOOOOOOOOOOOOOOOO   $$$$$$$$$$    $$$$$$$$$$    OOOOOOOOOOOOOO",
"OOOOOOOOOOOOOOOOOOO   $$$$$$$$$$    $$$$$$$$$$    OOOOOOOOOOOOOO"
};
