/* XPM */
static char *e920630d8bcf4b5bf6d6b242fe45b02buRl9pqvZJ5U7QQEv[] = {
/* columns rows colors chars-per-pixel */
"64 64 14 1 ",
"  c #533A38",
". c #553E39",
"X c #573F3D",
"o c #F27575",
"O c #ADBF58",
"+ c #D58571",
"@ c #AFC259",
"# c #B0C259",
"$ c #FBC57C",
"% c #FFAD99",
"& c #85C3D7",
"* c #DECFC3",
"= c #F3EBE5",
"- c #F4ECE6",
/* pixels */
"@@@@@@@@@@@@@@@@@@@@@@@@@@@@@@@@@@@@@@@@@@@@@@@@@@@@@@@@@@@@@@@@",
"@@@@@@@@@@@@@@@@@@@@@@@@@@@@@@@@@@@@@@@@@@@@@@@@@@@@@@@@@@@@@@@@",
"@@@@@@@@@@@@@@@@@@@@@@@@@@@@@@@@@@@@@@@@@@@@@@@@@@@@@@@@@@@@@@@@",
"@@@@@@@@@@@@@@@@@@@@@@@@@@@@@@@@@@@@@@@@@@@@@@@@@@@@@@@@@@@@@@@@",
"@@@@@@@@@@@@@@@@@@@@@@@@@@@@@@@@@@@@@@@@@@@@@@@@@@@@@@@@@@@@@@@@",
"@@@@@@@@@@@@@@@@@@@@@@@@@@@@@@@@@@@@@@@@@@@@@@@@@@@@@@@@@@@@@@@@",
"@@@@@@@@@@@@@@@@@@@@@@@@@@@@@@@@@@@@@@@@@@@@@@@@@@@@@@@@@@@@@@@@",
"@@@@@@@@@@@@@@@@@@@@@@@@@@@@@@@@@@@@@@@@@@@@@@@@@@@@@@@@@@@@@@@@",
"@@@@@@@@@@@@@@@@@@@@@@@@@@@@@@@@@@@@@@@@@@@@@@@@@@@@@@@@@@@@@@@@",
"@@@@@@@@@@@@@@@@@@@@@@@@@@@@@@@@@@@@@@@@@@@@@@@@@@@@@@@@@@@@@@@@",
"@@@@@@@@@@@@@@@@@@@@@@@@@@@@@@@@@@@@@@@@@@@@@@@@@@@@@@@@@@@@@@@@",
"@@@@@@@@@@@@@@@@@@@@@@@@@@@@@@@@@@@@@@@@@@@@@@@@@@@@@@@@@@@@@@@@",
"@@@@@@@@@@@@@@@@@@@@@@@@@@@@@@@@@@@@@@@@@@@@@@@@@@@@@@@@@@@@@@@@",
"@@@@@@@@@@@@@@@@@@@@@@@@@@@@@@@@@@@@@@@@@@@@@@@@@@@@@@@@@@@@@@@@",
"@@@@@@@@@@@@@@@@@@@@@@@@@@@@@@@@@@@@@@@@@@@@@@@@@@@@@@@@@@@@@@@@",
"@@@@@@@@@@@@@@@@@@@@@@               @@@               @@@@@@@@@",
"@@@@@@@@@@@@@@@@@@@@@@               @@@               @@@@@@@@@",
"@@@@@@@@@@@@@@@@@@@@@@               @@@               @@@@@@@@@",
"@@@@@@@@@@@@@@@@@@@   -----------       -----------    @@@@@@@@@",
"@@@@@@@@@@@@@@@@@@@   -----------       -----------    @@@@@@@@@",
"@@@@@@@@@@@@@@@@@@@   -----------       -----------    @@@@@@@@@",
"@@@@@@@@@@@@@@@@@@@   -----------       -----------    @@@@@@@@@",
"@@@@@@@@@@@@@@@@@@@   *****++           ****+++        @@@@@@@@@",
"@@@@@@@@@@@@@@@@@@@   *****++           ****+++        @@@@@@@@@",
"@@@@@@@@@@@@@@@@@@@   *****++           ****+++        @@@@@@@@@",
"@@@@@@@@@@@@@@@       -----%%    ----   ----%%%    @@@@@@@@@@@@@",
"@@@@@@@@@@@@@@@       -----%%    ----   ----%%%    @@@@@@@@@@@@@",
"@@@@@@@@@@@@@@@       -----%%    ----   ----%%%    @@@@@@@@@@@@@",
"@@@@@@@@@@@@   ------------------------------------    @@@@@@@@@",
"@@@@@@@@@@@@   ------------------------------------    @@@@@@@@@",
"@@@@@@@@@@@@   ------------------------------------    @@@@@@@@@",
"@@@@@@@@@@@@   ------------------------------------    @@@@@@@@@",
"@@@@@@@@@@@@   ------------------------------------    @@@@@@@@@",
"@@@@@@@@@@@@   ------------------------------------    @@@@@@@@@",
"@@@@@@@@@@@@   ------------------------------------    @@@@@@@@@",
"@@@@@@@@@@@@       -----------$$$-------$$$--------    @@@@@@@@@",
"@@@@@@@@@@@@       -----------$$$-------$$$--------    @@@@@@@@@",
"@@@@@@@@@@@@       -----------$$$-------$$$--------    @@@@@@@@@",
"@@@@@@@@@..    ------------------------------------      @@@@@@@",
"@@@@@@@@@..    ------------------------------------      @@@@@@@",
"@@@@@@@@@..    ------------------------------------      @@@@@@@",
"@@@@@@@@@@@@       --------  X--------------   ----    @@@@@@@@@",
"@@@@@@@@@@@@       --------  X--------------   ----    @@@@@@@@@",
"@@@@@@@@@@@@       --------   --------------   ----    @@@@@@@@@",
"@@@@@@@@@..    ------------  X---%%%%%%%%---   ----      @@@@@@@",
"@@@@@@@@@..    ------------  X---%%%%%%%%---   ----      @@@@@@@",
"@@@@@@@@@@@@@@@    ---%%%%%-----------------%%%    @@@@@@@@@@@@@",
"@@@@@@@@@@@@@@@    ---%%%%%-----------------%%%    @@@@@@@@@@@@@",
"@@@@@@@@@@@@@@@    ---%%%%%-----------------%%%    @@@@@@@@@@@@@",
"@@@@@@@@@@@@@@@                                    @@@@@@@@@@@@@",
"@@@@@@@@@@@@@@@@@@@                            @@@@@@@@@@@@@@@@@",
"@@@@@@@@@@@@@@@@@@@                            @@@@@@@O@@@@@@@@@",
"@@@@@@@@@@@@          &&&&&&&$$$$&&&&&&&$$$$           @@@@@@@@@",
"@@@@@@@@@@@@          &&&&&&&$$$$&&&&&&&$$$$           @@@@@@@@@",
"@@@@@@@@@@@@          &&&&&&&$$$$&&&&&&&$$$$      XX     @@@@@@@",
"@@@@@@@@@   -------   oooooooooooooooooooooo   --------  @@@@@@@",
"@@@@@@@@@   -------   oooooooooooooooooooooo   --------  @@@@@@@",
"@@@@@@@@@   -------   oooooooooooooooooooooo   --------  @@@@@@@",
"@@@@@@@@@.. --==--=   ooooooo        ooooooo   --------  @@@@@@@",
"@@@@@@@@@.. -------   ooooooo        ooooooo   ==-=====  @@@@@@@",
"@@@@@@@@@.. ===---=   ooooooo        ooooooo   ==-=====. @@@@@@@",
"@@@@@@@@@@@#          -----------    ----------        @@@@@@@@@",
"@@@@@@@@@@@@          -----------    ----------        @@@@@@@@@",
"@@@@@@@@@@@@          -----------    ----------        @@@@@@@@@"
};
